# xmcd
# 
# Track frame offsets:
#     150
#     20142
#     39242
#     56660
#     85867
#     106315
#     134292
# 
# Disc length: 2083
# 
# Revision: 1
# Processed by: cddbd v1.5.2PL0 Copyright (c) Steve Scherf et al.
# Submitted via: fre:ac v1.0.17
# 
DISCID=55082107
DTITLE=Miguel Mateos - 1986 -  Solos En América Vol 1
DYEAR=1986
DGENRE=Rock En Español
TTITLE0=Cuando Seas Grande
TTITLE1=Amame Ahora, no Mañana
TTITLE2=Dejen Las Armas
TTITLE3=Solos en América
TTITLE4=Llámame si me Necesitas
TTITLE5=Hagamos el Amor
TTITLE6=Mi Sombra en la Pared
EXTD=
EXTT0=
EXTT1=
EXTT2=
EXTT3=
EXTT4=
EXTT5=
EXTT6=
PLAYORDER=
